REM DIRINDEX 1\2\4,1\2\5,1\2\6,1\3\7,1\3\8,1\3\9,1\3\10
REM DIRNAME cjc058,folder01,folder02,folder03,folder04,folder05,folder06,folder07,folder08,folder09
TITLE ""
FILE "a_44.mp3" MP3
  TRACK 01 AUDIO
    TITLE "0:"
    INDEX 01 00:00:00
  TRACK 02 AUDIO
    TITLE "6:cjc058_1042"
    INDEX 01 00:00:11
  TRACK 03 AUDIO
    TITLE "0:"
    INDEX 01 00:05:32
  TRACK 04 AUDIO
    TITLE "6:cjc058_1043"
    INDEX 01 00:05:69
  TRACK 05 AUDIO
    TITLE "0:"
    INDEX 01 00:08:07
  TRACK 06 AUDIO
    TITLE "4:cjc058_1044"
    INDEX 01 00:08:50
  TRACK 07 AUDIO
    TITLE "0:"
    INDEX 01 00:10:55
  TRACK 08 AUDIO
    TITLE "5:cjc058_1045"
    INDEX 01 00:11:07
  TRACK 09 AUDIO
    TITLE "0:"
    INDEX 01 00:12:67
  TRACK 10 AUDIO
    TITLE "4:cjc058_1046"
    INDEX 01 00:13:71
  TRACK 11 AUDIO
    TITLE "0:"
    INDEX 01 00:15:66
  TRACK 12 AUDIO
    TITLE "5:cjc058_1047"
    INDEX 01 00:16:18
  TRACK 13 AUDIO
    TITLE "0:"
    INDEX 01 00:18:03
  TRACK 14 AUDIO
    TITLE "4:cjc058_1048"
    INDEX 01 00:19:07
  TRACK 15 AUDIO
    TITLE "0:"
    INDEX 01 00:20:73
  TRACK 16 AUDIO
    TITLE "5:cjc058_1049"
    INDEX 01 00:21:27
  TRACK 17 AUDIO
    TITLE "0:"
    INDEX 01 00:24:29
  TRACK 18 AUDIO
    TITLE "4:cjc058_1050"
    INDEX 01 00:25:33
  TRACK 19 AUDIO
    TITLE "0:"
    INDEX 01 00:28:00
  TRACK 20 AUDIO
    TITLE "5:cjc058_1051"
    INDEX 01 00:28:27
  TRACK 21 AUDIO
    TITLE "0:"
    INDEX 01 00:29:58
  TRACK 22 AUDIO
    TITLE "4:cjc058_1052"
    INDEX 01 00:30:59
  TRACK 23 AUDIO
    TITLE "0:"
    INDEX 01 00:33:52
  TRACK 24 AUDIO
    TITLE "5:cjc058_1053"
    INDEX 01 00:34:06
  TRACK 25 AUDIO
    TITLE "0:"
    INDEX 01 00:35:39
  TRACK 26 AUDIO
    TITLE "4:cjc058_1054"
    INDEX 01 00:36:38
  TRACK 27 AUDIO
    TITLE "0:"
    INDEX 01 00:39:43
  TRACK 28 AUDIO
    TITLE "5:cjc058_1055"
    INDEX 01 00:39:74
  TRACK 29 AUDIO
    TITLE "0:"
    INDEX 01 00:42:02
  TRACK 30 AUDIO
    TITLE "4:cjc058_1056"
    INDEX 01 00:43:05
  TRACK 31 AUDIO
    TITLE "0:"
    INDEX 01 00:46:47
  TRACK 32 AUDIO
    TITLE "5:cjc058_1057"
    INDEX 01 00:47:03
  TRACK 33 AUDIO
    TITLE "0:"
    INDEX 01 00:50:35
  TRACK 34 AUDIO
    TITLE "4:cjc058_1058"
    INDEX 01 00:51:38
  TRACK 35 AUDIO
    TITLE "0:"
    INDEX 01 00:53:68
  TRACK 36 AUDIO
    TITLE "5:cjc058_1059"
    INDEX 01 00:54:19
  TRACK 37 AUDIO
    TITLE "0:"
    INDEX 01 00:56:41
  TRACK 38 AUDIO
    TITLE "4:cjc058_1060"
    INDEX 01 00:57:45
  TRACK 39 AUDIO
    TITLE "0:"
    INDEX 01 00:59:24
  TRACK 40 AUDIO
    TITLE "5:cjc058_1061"
    INDEX 01 00:59:53
  TRACK 41 AUDIO
    TITLE "0:"
    INDEX 01 01:01:15
  TRACK 42 AUDIO
    TITLE "4:cjc058_1062"
    INDEX 01 01:02:14
  TRACK 43 AUDIO
    TITLE "0:"
    INDEX 01 01:04:21
  TRACK 44 AUDIO
    TITLE "5:cjc058_1063"
    INDEX 01 01:04:48
  TRACK 45 AUDIO
    TITLE "0:"
    INDEX 01 01:06:49
  TRACK 46 AUDIO
    TITLE "4:cjc058_1064"
    INDEX 01 01:07:51
  TRACK 47 AUDIO
    TITLE "0:"
    INDEX 01 01:09:20
  TRACK 48 AUDIO
    TITLE "5:cjc058_1065"
    INDEX 01 01:09:48
  TRACK 49 AUDIO
    TITLE "0:"
    INDEX 01 01:12:07
  TRACK 50 AUDIO
    TITLE "4:cjc058_1066"
    INDEX 01 01:13:10
  TRACK 51 AUDIO
    TITLE "0:"
    INDEX 01 01:15:07
  TRACK 52 AUDIO
    TITLE "5:cjc058_1067"
    INDEX 01 01:15:35
  TRACK 53 AUDIO
    TITLE "0:"
    INDEX 01 01:19:25
  TRACK 54 AUDIO
    TITLE "4:cjc058_1068"
    INDEX 01 01:20:28
  TRACK 55 AUDIO
    TITLE "0:"
    INDEX 01 01:22:35
  TRACK 56 AUDIO
    TITLE "5:cjc058_1069"
    INDEX 01 01:22:66
  TRACK 57 AUDIO
    TITLE "0:"
    INDEX 01 01:25:72
  TRACK 58 AUDIO
    TITLE "4:cjc058_1070"
    INDEX 01 01:26:74
  TRACK 59 AUDIO
    TITLE "0:"
    INDEX 01 01:28:63
  TRACK 60 AUDIO
    TITLE "5:cjc058_1071"
    INDEX 01 01:29:19
  TRACK 61 AUDIO
    TITLE "0:"
    INDEX 01 01:32:29
  TRACK 62 AUDIO
    TITLE "4:cjc058_1072"
    INDEX 01 01:33:33
  TRACK 63 AUDIO
    TITLE "0:"
    INDEX 01 01:35:20
  TRACK 64 AUDIO
    TITLE "5:cjc058_1073"
    INDEX 01 01:35:51
  TRACK 65 AUDIO
    TITLE "0:"
    INDEX 01 01:39:55
  TRACK 66 AUDIO
    TITLE "4:cjc058_1074"
    INDEX 01 01:40:58
  TRACK 67 AUDIO
    TITLE "0:"
    INDEX 01 01:42:12
  TRACK 68 AUDIO
    TITLE "5:cjc058_1075"
    INDEX 01 01:42:39
  TRACK 69 AUDIO
    TITLE "0:"
    INDEX 01 01:46:29
  TRACK 70 AUDIO
    TITLE "4:cjc058_1076"
    INDEX 01 01:47:33
  TRACK 71 AUDIO
    TITLE "0:"
    INDEX 01 01:49:26
  TRACK 72 AUDIO
    TITLE "5:cjc058_1077"
    INDEX 01 01:49:55
  TRACK 73 AUDIO
    TITLE "0:"
    INDEX 01 01:52:71
  TRACK 74 AUDIO
    TITLE "4:cjc058_1078"
    INDEX 01 01:53:72
  TRACK 75 AUDIO
    TITLE "0:"
    INDEX 01 01:55:48
  TRACK 76 AUDIO
    TITLE "5:cjc058_1079"
    INDEX 01 01:56:00
  TRACK 77 AUDIO
    TITLE "0:"
    INDEX 01 01:58:60
  TRACK 78 AUDIO
    TITLE "4:cjc058_1080"
    INDEX 01 01:59:65
  TRACK 79 AUDIO
    TITLE "0:"
    INDEX 01 02:01:29
  TRACK 80 AUDIO
    TITLE "5:cjc058_1081"
    INDEX 01 02:01:58
  TRACK 81 AUDIO
    TITLE "0:"
    INDEX 01 02:03:28
  TRACK 82 AUDIO
    TITLE "4:cjc058_1082"
    INDEX 01 02:04:33
  TRACK 83 AUDIO
    TITLE "0:"
    INDEX 01 02:05:72
  TRACK 84 AUDIO
    TITLE "5:cjc058_1083"
    INDEX 01 02:06:28
  TRACK 85 AUDIO
    TITLE "0:"
    INDEX 01 02:09:36
  TRACK 86 AUDIO
    TITLE "4:cjc058_1084"
    INDEX 01 02:10:38
  TRACK 87 AUDIO
    TITLE "0:"
    INDEX 01 02:11:70
  TRACK 88 AUDIO
    TITLE "5:cjc058_1085"
    INDEX 01 02:12:23
  TRACK 89 AUDIO
    TITLE "0:"
    INDEX 01 02:13:63
  TRACK 90 AUDIO
    TITLE "4:cjc058_1086"
    INDEX 01 02:14:67
  TRACK 91 AUDIO
    TITLE "0:"
    INDEX 01 02:17:10
  TRACK 92 AUDIO
    TITLE "5:cjc058_1087"
    INDEX 01 02:17:40
  TRACK 93 AUDIO
    TITLE "0:"
    INDEX 01 02:19:39
  TRACK 94 AUDIO
    TITLE "4:cjc058_1088"
    INDEX 01 02:20:38
  TRACK 95 AUDIO
    TITLE "0:"
    INDEX 01 02:21:67
  TRACK 96 AUDIO
    TITLE "5:cjc058_1089"
    INDEX 01 02:22:21
  TRACK 97 AUDIO
    TITLE "0:"
    INDEX 01 02:23:52
  TRACK 98 AUDIO
    TITLE "4:cjc058_1090"
    INDEX 01 02:24:53
  TRACK 99 AUDIO
    TITLE "0:"
    INDEX 01 02:26:09
  TRACK 100 AUDIO
    TITLE "5:cjc058_1091"
    INDEX 01 02:26:37
  TRACK 101 AUDIO
    TITLE "0:"
    INDEX 01 02:29:55
  TRACK 102 AUDIO
    TITLE "4:cjc058_1092"
    INDEX 01 02:30:58
  TRACK 103 AUDIO
    TITLE "0:"
    INDEX 01 02:32:16
  TRACK 104 AUDIO
    TITLE "5:cjc058_1093"
    INDEX 01 02:32:43
  TRACK 105 AUDIO
    TITLE "0:"
    INDEX 01 02:36:21
  TRACK 106 AUDIO
    TITLE "4:cjc058_1094"
    INDEX 01 02:37:27
  TRACK 107 AUDIO
    TITLE "0:"
    INDEX 01 02:38:44
  TRACK 108 AUDIO
    TITLE "5:cjc058_1095"
    INDEX 01 02:38:71
  TRACK 109 AUDIO
    TITLE "0:"
    INDEX 01 02:40:25
  TRACK 110 AUDIO
    TITLE "4:cjc058_1096"
    INDEX 01 02:41:24
  TRACK 111 AUDIO
    TITLE "0:"
    INDEX 01 02:43:06
  TRACK 112 AUDIO
    TITLE "5:cjc058_1097"
    INDEX 01 02:43:37
  TRACK 113 AUDIO
    TITLE "0:"
    INDEX 01 02:45:59
  TRACK 114 AUDIO
    TITLE "4:cjc058_1098"
    INDEX 01 02:46:63
  TRACK 115 AUDIO
    TITLE "0:"
    INDEX 01 02:48:44
  TRACK 116 AUDIO
    TITLE "5:cjc058_1099"
    INDEX 01 02:48:72
  TRACK 117 AUDIO
    TITLE "0:"
    INDEX 01 02:52:03
  TRACK 118 AUDIO
    TITLE "4:cjc058_1100"
    INDEX 01 02:53:08
  TRACK 119 AUDIO
    TITLE "0:"
    INDEX 01 02:54:60
  TRACK 120 AUDIO
    TITLE "5:cjc058_1101"
    INDEX 01 02:55:15
  TRACK 121 AUDIO
    TITLE "0:"
    INDEX 01 02:58:19
  TRACK 122 AUDIO
    TITLE "4:cjc058_1102"
    INDEX 01 02:59:24
  TRACK 123 AUDIO
    TITLE "0:"
    INDEX 01 03:00:49
  TRACK 124 AUDIO
    TITLE "5:cjc058_1103"
    INDEX 01 03:01:04
  TRACK 125 AUDIO
    TITLE "0:"
    INDEX 01 03:04:16
  TRACK 126 AUDIO
    TITLE "4:cjc058_1104"
    INDEX 01 03:05:23
  TRACK 127 AUDIO
    TITLE "0:"
    INDEX 01 03:06:62
  TRACK 128 AUDIO
    TITLE "5:cjc058_1105"
    INDEX 01 03:07:16
  TRACK 129 AUDIO
    TITLE "0:"
    INDEX 01 03:08:64
  TRACK 130 AUDIO
    TITLE "4:cjc058_1106"
    INDEX 01 03:09:68
  TRACK 131 AUDIO
    TITLE "0:"
    INDEX 01 03:11:12
  TRACK 132 AUDIO
    TITLE "5:cjc058_1107"
    INDEX 01 03:11:39
  TRACK 133 AUDIO
    TITLE "0:"
    INDEX 01 03:12:60
